<svg xmlns="http://www.w3.org/2000/svg" viewBox="0 0 160 160" width="512" height="512">
  <defs>
    <linearGradient id="bg" x1="0%" y1="0%" x2="100%" y2="100%">
      <stop offset="0%" style="stop-color:#f3f4f6;stop-opacity:1"/>
      <stop offset="100%" style="stop-color:#0f3b94;stop-opacity:1"/>
    </linearGradient>
    <linearGradient id="bg512" x1="0%" y1="0%" x2="100%" y2="100%">
      <stop offset="0%" style="stop-color:#f3f4f6;stop-opacity:1"/>
      <stop offset="100%" style="stop-color:#0f3b94;stop-opacity:1"/>
    </linearGradient>
  </defs>
  <rect width="160" height="160" rx="28" fill="url(#bg)"/>
  
          <rect x="35" y="75" width="90" height="55" rx="5" fill="#0f3b94"/>
          <path d="M55 75 Q80 40 105 75" fill="#0f3b94"/>
          <rect x="76" y="18" width="8" height="30" rx="4" fill="#0f3b94"/>
          <polygon points="80,14 74,22 86,22" fill="#c8a400"/>
          <rect x="46" y="82" width="10" height="48" rx="3" fill="white" opacity="0.7"/>
          <rect x="62" y="88" width="10" height="42" rx="3" fill="white" opacity="0.7"/>
          <path d="M72 88 h16 v30 h-16 z" fill="white" opacity="0.9"/>
          <rect x="98" y="82" width="10" height="48" rx="3" fill="white" opacity="0.7"/>
          <rect x="114" y="88" width="10" height="42" rx="3" fill="white" opacity="0.7"/>
          <circle cx="80" cy="38" r="5" fill="#c8a400"/>
        
</svg>